<svg xmlns="http://www.w3.org/2000/svg" viewBox="0 0 1200 1200">
  <path d="m81.5 1095.1 263.25 98.5c2.1992.80078 9.0508 2.0508 11.398 2.0508 1.3516 0 2.8008-.14844 4.1484-.44922l396.4-84.551c38.102 53.25 101.95 85 173.6 85 119.5 0 209.55-85.148 209.55-198.05 0-6.5508-1.3516-12.699-1.9492-19.102.14844-1.0508.60156-1.9492.60156-3.0508v-167.9c0-126.65-20.398-223.7-42.051-326.4-21.898-104.15-44.5-211.75-49.051-362.55h25.75c11.051 0 20-8.9492 20-20v-21.5c0-40.148-32.699-72.801-72.852-72.801l-201.8.003906c-40.148 0-72.801 32.648-72.801 72.801v21.5c0 11.051 9 20 20 20h29.898c-3.8008 122.55-19.898 217.5-38.699 308.6l-69.25-83.051v-115.05c0-9.3516-4.0508-18.301-11.199-24.648-7-6.1484-16.301-9-25.699-7.8984l-353.55 43c-16.398 2.0977-28.75 16.098-28.75 32.598v123.75l-193.75 126.45c-.10156.050781-.25.050781-.35156.14844-.10156.050781-.10156.14844-.19922.25l-.30078.19922c-2.8984 1.8984-4.8984 4.5508-6.3984 7.3984-4.1992 5.6016-7.25 12-7.25 19.199v514.9c0 13.559 8.6016 25.906 21.301 30.656zm654.55-20.949L371.7 1151.85l1.6992-500.3 435.6-93.199v268.35c-55.051 39-88.352 102.2-88.352 170.9 0 26.801 5.4023 52.75 15.402 76.551zm194.15 81.5c-61.949 0-116.7-28.199-146.4-75.5-15.398-24.398-23.148-52.199-23.148-82.551 0-63.148 34.699-120.7 90.648-150.1 24.102-12.699 51.352-19.449 78.852-19.449 93.5 0 169.55 76.051 169.55 169.55.046875 90.102-72.805 158.05-169.5 158.05zm18.199-435.8c-6.1992 8.3516-10.102 17.25-12.898 26.102-4.8984-5.1016-10.949-9.1992-18.648-11.5-10.5-3.1016-21.699 2.8516-24.852 13.449-3.1484 10.602 2.8516 21.75 13.449 24.898 2.75.80078 4.6484 7.8984 5.3008 16.398-21.301 2-42.102 7.25-61.699 15.5v-255.2c0-.80078-.44922-1.5-.5-2.3008 5.4492-13.551 11.051-26.801 17.352-38.648h108.45c11.852 23.699 40.148 88.102 50.449 173.3-34.949 3.8516-60.152 16.25-76.402 38zm99.852.20312c2.75 0 5.6016.050782 8.5508.14844-2.6484 29.102-31.602 50.301-86.449 63.199-.55078-11.949 1-27.551 10.25-39.801 11.797-15.598 34.547-23.547 67.648-23.547zm50.199 87.5v66.25c-20.398-27.648-47.352-50-78.648-64.898 52.5-21.551 71.25-52 75.602-78.949 1.7461 24.895 3.0469 50.395 3.0469 77.598zm-312.7-728.95v-1.5c0-18.102 14.699-32.801 32.75-32.801h201.75c18.102 0 32.801 14.699 32.801 32.801zm49.898 40h171.7c4.6016 154.95 27.699 264.6 50 370.8 13.75 65.551 26.449 129.45 34.051 199.4-3.25-3.8516-7.8516-6.5-13.25-7.1016-4.8984-.5-8.6992-.10156-13.352-.39844-13.398-118.65-59.102-199.3-61.148-202.8-3.6016-6.1484-10.148-9.8984-17.301-9.8984h-132.25c-7.1484 0-13.699 3.8008-17.301 9.9492-5 8.6016-9.75 17.852-14.301 27.352l-32.949-39.5c21.953-103 41.902-207.5 46.102-347.8zm-176.25 254.2 125.05 149.95-416.95 89.199-53.551-188.7zm-350.9-94.301 339.1-41.301v96.898l-339.1 49.5zm-31.852 159.85 46.602 164.1-187.9-71.898zm-176.4 121.6 233.1 89.148-.45312 140.85-232.65-77.5zm0 194.65 232.5 77.449-.44922 137.3-232.05-81.051zm0 176.05 231.9 81-.44922 134.35-231.45-86.602z"/>
  <path d="m684.15 697-200.2 42.852c-.64844.14844-1.1016.55078-1.75.75-1.3008.39844-2.5.94922-3.6484 1.6016-1.1016.60156-2.1484 1.25-3.1016 2.1016-1 .85156-1.8516 1.75-2.6484 2.75-.80078 1-1.5 1.9492-2.1016 3.1016-.60156 1.1016-1.0508 2.25-1.3984 3.5-.39844 1.3008-.64844 2.5508-.80078 3.8984-.050781.64844-.35156 1.1992-.39844 1.8516l-.80078 234.75c0 .25.14844.5.14844.75.050781 1.3984.5 2.6992.80078 4.0508.30078 1.1992.44922 2.3984.89844 3.5.5 1.1484 1.3516 2.1016 2.1016 3.1484.75 1.0508 1.3516 2.1484 2.3008 3.0508.80078.80078 1.8516 1.25 2.8008 1.8984 1.25.80078 2.3984 1.6992 3.8008 2.25.19922.10156.35156.25.60156.35156 2.1016.75 6.25 1.4492 8.5 1.4492 1.3516 0 2.8008-.14844 4.1484-.44922l201.45-42.949c11.852-2.6016 20.148-12.852 20.148-25v-224.05c0-7.8516-3.5-15.148-9.6016-20-4.5469-3.8555-15.398-6.3047-21.25-5.1562zm-9.0977 237.45-167.6 35.75.64844-194.6 166.95-35.75z"/>
</svg>